<?xml version="1.0" encoding="UTF-8" standalone="no"?> <svg width="42" height="42" viewBox="0 0 512 512" fill="none"    xmlns="http://www.w3.org/2000/svg">
<path fill-rule="evenodd" fill-opacity='0.7' clip-rule="evenodd" d="M128 24C70.5624 24 24 70.5624 24 128V384C24 441.438 70.5624 488 128 488H384C441.438 488 488 441.438 488 384V128C488 70.5624 441.438 24 384 24H128ZM40 128C40 79.3989 79.3989 40 128 40H384C432.601 40 472 79.3989 472 128V384C472 432.601 432.601 472 384 472H128C79.3989 472 40 432.601 40 384V128ZM168 100C143.699 100 124 119.699 124 144V368C124 392.301 143.699 412 168 412H360C375.464 412 388 399.464 388 384C388 368.536 375.464 356 360 356H180V284H336C351.464 284 364 271.464 364 256C364 240.536 351.464 228 336 228H180V156H360C375.464 156 388 143.464 388 128C388 112.536 375.464 100 360 100H168ZM140 144C140 128.536 152.536 116 168 116H360C366.627 116 372 121.373 372 128C372 134.627 366.627 140 360 140H172C167.582 140 164 143.582 164 148V236C164 240.418 167.582 244 172 244H336C342.627 244 348 249.373 348 256C348 262.627 342.627 268 336 268H172C167.582 268 164 271.582 164 276V364C164 368.418 167.582 372 172 372H360C366.627 372 372 377.373 372 384C372 390.627 366.627 396 360 396H168C152.536 396 140 383.464 140 368V144Z" fill="#FFFFFF"/>
</svg>
