<?xml version="1.0" encoding="UTF-8" standalone="no"?> <svg width="42" height="42" viewBox="0 0 512 512" fill="none"    xmlns="http://www.w3.org/2000/svg">
<path fill-rule="evenodd" fill-opacity='0.7' clip-rule="evenodd" d="M128 24C70.5624 24 24 70.5624 24 128V384C24 441.438 70.5624 488 128 488H384C441.438 488 488 441.438 488 384V128C488 70.5624 441.438 24 384 24H128ZM40 128C40 79.3989 79.3989 40 128 40H384C432.601 40 472 79.3989 472 128V384C472 432.601 432.601 472 384 472H128C79.3989 472 40 432.601 40 384V128ZM120 104C106.745 104 96 114.745 96 128C96 141.255 106.745 152 120 152H128V272C128 285.255 138.745 296 152 296C165.255 296 176 285.255 176 272V128C176 114.745 165.255 104 152 104H120ZM112 128C112 123.582 115.582 120 120 120H152C156.418 120 160 123.582 160 128V272C160 276.418 156.418 280 152 280C147.582 280 144 276.418 144 272V144C144 139.582 140.418 136 136 136H120C115.582 136 112 132.418 112 128ZM184 160C184 129.072 209.072 104 240 104C270.928 104 296 129.072 296 160V240C296 270.928 270.928 296 240 296C209.072 296 184 270.928 184 240V160ZM240 120C217.909 120 200 137.909 200 160V240C200 262.091 217.909 280 240 280C262.091 280 280 262.091 280 240V160C280 137.909 262.091 120 240 120ZM240 152C235.582 152 232 155.582 232 160V240C232 244.418 235.582 248 240 248C244.418 248 248 244.418 248 240V160C248 155.582 244.418 152 240 152ZM216 160C216 146.745 226.745 136 240 136C253.255 136 264 146.745 264 160V240C264 253.255 253.255 264 240 264C226.745 264 216 253.255 216 240V160ZM360 104C329.072 104 304 129.072 304 160V240C304 270.928 329.072 296 360 296C390.928 296 416 270.928 416 240V160C416 129.072 390.928 104 360 104ZM320 160C320 137.909 337.909 120 360 120C382.091 120 400 137.909 400 160V240C400 262.091 382.091 280 360 280C337.909 280 320 262.091 320 240V160ZM352 160C352 155.582 355.582 152 360 152C364.418 152 368 155.582 368 160V240C368 244.418 364.418 248 360 248C355.582 248 352 244.418 352 240V160ZM360 136C346.745 136 336 146.745 336 160V240C336 253.255 346.745 264 360 264C373.255 264 384 253.255 384 240V160C384 146.745 373.255 136 360 136ZM136 392C136 405.255 146.745 416 160 416H352C365.255 416 376 405.255 376 392C376 378.745 365.255 368 352 368H160C146.745 368 136 378.745 136 392ZM160 400C155.582 400 152 396.418 152 392C152 387.582 155.582 384 160 384H352C356.418 384 360 387.582 360 392C360 396.418 356.418 400 352 400H160ZM128 360C114.745 360 104 349.255 104 336C104 322.745 114.745 312 128 312H384C397.255 312 408 322.745 408 336C408 349.255 397.255 360 384 360H128ZM120 336C120 340.418 123.582 344 128 344H384C388.418 344 392 340.418 392 336C392 331.582 388.418 328 384 328H128C123.582 328 120 331.582 120 336Z" fill="#FFFFFF"/>
</svg>
