<?xml version="1.0" encoding="UTF-8" standalone="no"?> <svg width="42" height="42" viewBox="0 0 512 512" fill="none"    xmlns="http://www.w3.org/2000/svg">
<path fill-rule="evenodd" fill-opacity='0.7' clip-rule="evenodd" d="M128 24C70.5624 24 24 70.5624 24 128V384C24 441.438 70.5624 488 128 488H384C441.438 488 488 441.438 488 384V128C488 70.5624 441.438 24 384 24H128ZM40 128C40 79.3989 79.3989 40 128 40H384C432.601 40 472 79.3989 472 128V384C472 432.601 432.601 472 384 472H128C79.3989 472 40 432.601 40 384V128ZM200 100C175.699 100 156 119.699 156 144V384C156 399.464 168.536 412 184 412C199.464 412 212 399.464 212 384V284H296C346.81 284 388 242.81 388 192C388 141.19 346.81 100 296 100H200ZM172 144C172 128.536 184.536 116 200 116H296C337.974 116 372 150.026 372 192C372 233.974 337.974 268 296 268H204C199.582 268 196 271.582 196 276V384C196 390.627 190.627 396 184 396C177.373 396 172 390.627 172 384V144ZM204 140C199.582 140 196 143.582 196 148V236C196 240.418 199.582 244 204 244H296C324.719 244 348 220.719 348 192C348 163.281 324.719 140 296 140H204ZM212 228V156H296C315.882 156 332 172.118 332 192C332 211.882 315.882 228 296 228H212Z" fill="white"/>
</svg>
